<svg width="18" height="17" viewBox="0 0 18 17" fill="none" xmlns="http://www.w3.org/2000/svg">
<path fill-rule="evenodd" clip-rule="evenodd" d="M4.2125 1.8818C4.2125 2.92787 3.4251 3.76487 2.16077 3.76487H2.13757C0.920301 3.76487 0.133301 2.92787 0.133301 1.8818C0.133301 0.8136 0.944234 0 2.18463 0C3.4251 0 4.18897 0.8136 4.2125 1.8818ZM3.97363 5.25187V16.1464H0.347701V5.25187H3.97363ZM17.0501 16.1464L17.0502 9.8998C17.0502 6.55353 15.2614 4.99607 12.8754 4.99607C10.9502 4.99607 10.0883 6.05347 9.6071 6.79527V5.2522H5.9807C6.0285 6.27447 5.9807 16.1467 5.9807 16.1467H9.6071V10.0623C9.6071 9.73667 9.63063 9.41187 9.7265 9.17873C9.98857 8.52827 10.5852 7.8548 11.587 7.8548C12.8996 7.8548 13.4243 8.8538 13.4243 10.3178V16.1464H17.0501Z" fill="#7D799C"/>
</svg>
