<svg width="17" height="14" viewBox="0 0 17 14" fill="none" xmlns="http://www.w3.org/2000/svg">
<path d="M8.18743 4.005L8.22103 4.55867L7.66143 4.49087C5.62456 4.231 3.84509 3.34967 2.33416 1.86953L1.59556 1.13513L1.40529 1.67747C1.00236 2.88647 1.25976 4.1632 2.09916 5.02187C2.54683 5.49647 2.44609 5.56427 1.67389 5.2818C1.40529 5.1914 1.17023 5.1236 1.14789 5.15747C1.06956 5.2366 1.33816 6.26473 1.55076 6.67153C1.84176 7.23647 2.43489 7.79007 3.08403 8.11773L3.63243 8.3776L2.98329 8.38893C2.35656 8.38893 2.33416 8.4002 2.40136 8.63747C2.62516 9.37187 3.50929 10.1515 4.49416 10.4905L5.18809 10.7277L4.58369 11.0893C3.68836 11.6091 2.63636 11.9028 1.58436 11.9254C1.08069 11.9367 0.666626 11.9819 0.666626 12.0158C0.666626 12.1288 2.03203 12.7615 2.82663 13.0101C5.21043 13.7445 8.04196 13.4281 10.1684 12.174C11.6792 11.2814 13.1901 9.50747 13.8952 7.79007C14.2757 6.87487 14.6562 5.20267 14.6562 4.40047C14.6562 3.88073 14.6898 3.81293 15.3165 3.19153C15.6858 2.82993 16.0328 2.43447 16.1 2.32153C16.2118 2.10687 16.2007 2.10687 15.6299 2.29893C14.6786 2.63787 14.5443 2.59267 15.0144 2.08427C15.3613 1.72267 15.7754 1.06733 15.7754 0.875266C15.7754 0.841399 15.6075 0.897866 15.4172 0.999533C15.2158 1.11253 14.7682 1.282 14.4324 1.38373L13.828 1.5758L13.2796 1.20293C12.9775 0.999533 12.5522 0.773599 12.3284 0.705799C11.7576 0.547599 10.8846 0.5702 10.3698 0.751C8.97083 1.25947 8.08669 2.57007 8.18743 4.005Z" fill="#7D799C"/>
</svg>
